M48
; DRILL file {KiCad 9.0.4-9.0.4-0~ubuntu22.04.1} date 2025-10-25T09:09:07+0900
; FORMAT={-:-/ absolute / metric / decimal}
; #@! TF.CreationDate,2025-10-25T09:09:07+09:00
; #@! TF.GenerationSoftware,Kicad,Pcbnew,9.0.4-9.0.4-0~ubuntu22.04.1
; #@! TF.FileFunction,MixedPlating,1,2
FMAT,2
METRIC
; #@! TA.AperFunction,Plated,PTH,ViaDrill
T1C0.300
; #@! TA.AperFunction,Plated,PTH,ComponentDrill
T2C0.700
; #@! TA.AperFunction,Plated,PTH,ComponentDrill
T3C0.800
; #@! TA.AperFunction,Plated,PTH,ComponentDrill
T4C1.000
; #@! TA.AperFunction,Plated,PTH,ComponentDrill
T5C1.100
; #@! TA.AperFunction,NonPlated,NPTH,ComponentDrill
T6C1.850
; #@! TA.AperFunction,NonPlated,NPTH,ComponentDrill
T7C2.200
; #@! TA.AperFunction,NonPlated,NPTH,ComponentDrill
T8C3.200
%
G90
G05
T1
X8.745Y27.29
X10.015Y25.385
X11.285Y60.945
X12.259Y53.18
X12.259Y22.463
X15.788Y6.912
X17.635Y29.195
X27.925Y40.513
X39.86Y23.523
X40.582Y31.129
T2
X36.05Y11.415
X41.13Y11.415
T3
X1.76Y63.485
X1.76Y60.945
X1.76Y58.405
X1.76Y55.865
X1.76Y53.325
X1.76Y25.385
X1.76Y22.845
X1.76Y20.305
X1.76Y17.765
X1.76Y15.225
X2.415Y12.05
X4.915Y12.05
X4.935Y63.485
X4.935Y60.945
X4.935Y58.405
X4.935Y55.865
X4.935Y53.325
X4.935Y50.785
X4.935Y48.245
X4.935Y45.705
X4.935Y43.165
X4.935Y40.625
X4.935Y38.085
X4.935Y35.545
X4.935Y33.005
X4.935Y30.465
X4.935Y27.925
X4.935Y25.385
X4.935Y22.845
X4.935Y20.305
X4.935Y17.765
X4.935Y15.225
X20.175Y63.485
X20.175Y60.945
X20.175Y58.405
X20.175Y55.865
X20.175Y53.325
X20.175Y50.785
X20.175Y48.245
X20.175Y45.705
X20.175Y43.165
X20.175Y40.625
X20.175Y38.085
X20.175Y35.545
X20.175Y33.005
X20.175Y30.465
X20.175Y27.925
X20.175Y25.385
X20.175Y22.845
X20.175Y20.305
X20.175Y17.765
X20.175Y15.225
X25.255Y69.835
X25.255Y67.295
T4
X8.745Y69.835
X11.285Y69.835
X13.825Y69.835
X16.365Y69.835
X18.905Y69.835
X21.445Y69.835
X25.255Y63.485
X25.255Y60.945
X25.255Y58.405
X25.255Y55.865
X25.255Y53.325
X25.255Y50.785
X25.255Y48.245
X25.255Y45.705
X25.255Y43.165
X25.255Y40.625
X25.255Y38.085
X25.255Y35.545
X25.255Y33.005
X25.255Y30.465
X25.255Y27.925
X25.255Y25.385
X25.255Y22.845
X25.255Y20.305
X25.255Y17.765
X25.255Y15.225
X43.035Y63.485
X43.035Y60.945
X43.035Y58.405
X43.035Y55.865
X43.035Y53.325
X43.035Y50.785
X43.035Y48.245
X43.035Y45.705
X43.035Y43.165
X43.035Y40.625
X43.035Y38.085
X43.035Y35.545
X43.035Y33.005
X43.035Y30.465
X43.035Y27.925
X43.035Y25.385
X43.035Y22.845
X43.035Y20.305
X43.035Y17.765
X43.035Y15.225
T5
X32.25Y8.585
X32.25Y4.085
X38.75Y8.585
X38.75Y4.085
T6
X31.72Y60.325
X36.57Y60.325
T7
X31.42Y63.355
X36.87Y63.355
T8
X3.0Y69.0
X3.0Y3.0
X44.0Y69.0
X44.0Y3.0
M30
