G04 #@! TF.GenerationSoftware,KiCad,Pcbnew,9.0.4-9.0.4-0~ubuntu22.04.1*
G04 #@! TF.CreationDate,2025-10-25T09:08:59+09:00*
G04 #@! TF.ProjectId,Pico2MEMEmuCosmac,5069636f-324d-4454-9d45-6d75436f736d,1.0*
G04 #@! TF.SameCoordinates,PX68e7780PY7270e00*
G04 #@! TF.FileFunction,Soldermask,Top*
G04 #@! TF.FilePolarity,Negative*
%FSLAX46Y46*%
G04 Gerber Fmt 4.6, Leading zero omitted, Abs format (unit mm)*
G04 Created by KiCad (PCBNEW 9.0.4-9.0.4-0~ubuntu22.04.1) date 2025-10-25 09:08:59*
%MOMM*%
%LPD*%
G01*
G04 APERTURE LIST*
G04 Aperture macros list*
%AMRoundRect*
0 Rectangle with rounded corners*
0 $1 Rounding radius*
0 $2 $3 $4 $5 $6 $7 $8 $9 X,Y pos of 4 corners*
0 Add a 4 corners polygon primitive as box body*
4,1,4,$2,$3,$4,$5,$6,$7,$8,$9,$2,$3,0*
0 Add four circle primitives for the rounded corners*
1,1,$1+$1,$2,$3*
1,1,$1+$1,$4,$5*
1,1,$1+$1,$6,$7*
1,1,$1+$1,$8,$9*
0 Add four rect primitives between the rounded corners*
20,1,$1+$1,$2,$3,$4,$5,0*
20,1,$1+$1,$4,$5,$6,$7,0*
20,1,$1+$1,$6,$7,$8,$9,0*
20,1,$1+$1,$8,$9,$2,$3,0*%
%AMFreePoly0*
4,1,37,0.800000,0.796148,0.878414,0.796148,1.032228,0.765552,1.177117,0.705537,1.307515,0.618408,1.418408,0.507515,1.505537,0.377117,1.565552,0.232228,1.596148,0.078414,1.596148,-0.078414,1.565552,-0.232228,1.505537,-0.377117,1.418408,-0.507515,1.307515,-0.618408,1.177117,-0.705537,1.032228,-0.765552,0.878414,-0.796148,0.800000,-0.796148,0.800000,-0.800000,-1.400000,-0.800000,
-1.403843,-0.796157,-1.439018,-0.796157,-1.511114,-0.766294,-1.566294,-0.711114,-1.596157,-0.639018,-1.596157,-0.603843,-1.600000,-0.600000,-1.600000,0.600000,-1.596157,0.603843,-1.596157,0.639018,-1.566294,0.711114,-1.511114,0.766294,-1.439018,0.796157,-1.403843,0.796157,-1.400000,0.800000,0.800000,0.800000,0.800000,0.796148,0.800000,0.796148,$1*%
%AMFreePoly1*
4,1,37,0.000000,0.796148,0.078414,0.796148,0.232228,0.765552,0.377117,0.705537,0.507515,0.618408,0.618408,0.507515,0.705537,0.377117,0.765552,0.232228,0.796148,0.078414,0.796148,-0.078414,0.765552,-0.232228,0.705537,-0.377117,0.618408,-0.507515,0.507515,-0.618408,0.377117,-0.705537,0.232228,-0.765552,0.078414,-0.796148,0.000000,-0.796148,0.000000,-0.800000,-0.600000,-0.800000,
-0.603843,-0.796157,-0.639018,-0.796157,-0.711114,-0.766294,-0.766294,-0.711114,-0.796157,-0.639018,-0.796157,-0.603843,-0.800000,-0.600000,-0.800000,0.600000,-0.796157,0.603843,-0.796157,0.639018,-0.766294,0.711114,-0.711114,0.766294,-0.639018,0.796157,-0.603843,0.796157,-0.600000,0.800000,0.000000,0.800000,0.000000,0.796148,0.000000,0.796148,$1*%
%AMFreePoly2*
4,1,37,0.603843,0.796157,0.639018,0.796157,0.711114,0.766294,0.766294,0.711114,0.796157,0.639018,0.796157,0.603843,0.800000,0.600000,0.800000,-0.600000,0.796157,-0.603843,0.796157,-0.639018,0.766294,-0.711114,0.711114,-0.766294,0.639018,-0.796157,0.603843,-0.796157,0.600000,-0.800000,0.000000,-0.800000,0.000000,-0.796148,-0.078414,-0.796148,-0.232228,-0.765552,-0.377117,-0.705537,
-0.507515,-0.618408,-0.618408,-0.507515,-0.705537,-0.377117,-0.765552,-0.232228,-0.796148,-0.078414,-0.796148,0.078414,-0.765552,0.232228,-0.705537,0.377117,-0.618408,0.507515,-0.507515,0.618408,-0.377117,0.705537,-0.232228,0.765552,-0.078414,0.796148,0.000000,0.796148,0.000000,0.800000,0.600000,0.800000,0.603843,0.796157,0.603843,0.796157,$1*%
%AMFreePoly3*
4,1,37,1.403843,0.796157,1.439018,0.796157,1.511114,0.766294,1.566294,0.711114,1.596157,0.639018,1.596157,0.603843,1.600000,0.600000,1.600000,-0.600000,1.596157,-0.603843,1.596157,-0.639018,1.566294,-0.711114,1.511114,-0.766294,1.439018,-0.796157,1.403843,-0.796157,1.400000,-0.800000,-0.800000,-0.800000,-0.800000,-0.796148,-0.878414,-0.796148,-1.032228,-0.765552,-1.177117,-0.705537,
-1.307515,-0.618408,-1.418408,-0.507515,-1.505537,-0.377117,-1.565552,-0.232228,-1.596148,-0.078414,-1.596148,0.078414,-1.565552,0.232228,-1.505537,0.377117,-1.418408,0.507515,-1.307515,0.618408,-1.177117,0.705537,-1.032228,0.765552,-0.878414,0.796148,-0.800000,0.796148,-0.800000,0.800000,1.400000,0.800000,1.403843,0.796157,1.403843,0.796157,$1*%
G04 Aperture macros list end*
%ADD10RoundRect,0.150000X0.150000X-0.837500X0.150000X0.837500X-0.150000X0.837500X-0.150000X-0.837500X0*%
%ADD11RoundRect,0.250000X0.950000X0.550000X-0.950000X0.550000X-0.950000X-0.550000X0.950000X-0.550000X0*%
%ADD12O,2.400000X1.600000*%
%ADD13RoundRect,0.800000X-0.800000X-0.000010X0.800000X-0.000010X0.800000X0.000010X-0.800000X0.000010X0*%
%ADD14C,1.600000*%
%ADD15FreePoly0,0.000000*%
%ADD16FreePoly1,0.000000*%
%ADD17FreePoly2,0.000000*%
%ADD18FreePoly3,0.000000*%
%ADD19RoundRect,0.200000X-0.600000X-0.600000X0.600000X-0.600000X0.600000X0.600000X-0.600000X0.600000X0*%
%ADD20C,2.200000*%
%ADD21C,1.850000*%
%ADD22RoundRect,0.218750X0.218750X0.256250X-0.218750X0.256250X-0.218750X-0.256250X0.218750X-0.256250X0*%
%ADD23RoundRect,0.200000X-0.200000X-0.275000X0.200000X-0.275000X0.200000X0.275000X-0.200000X0.275000X0*%
%ADD24RoundRect,0.250000X0.550000X-0.550000X0.550000X0.550000X-0.550000X0.550000X-0.550000X-0.550000X0*%
%ADD25C,3.200000*%
%ADD26C,2.000000*%
%ADD27R,1.600000X1.600000*%
%ADD28R,1.700000X1.700000*%
%ADD29C,1.700000*%
%ADD30C,1.400000*%
%ADD31C,0.605000*%
G04 APERTURE END LIST*
D10*
X7475000Y4430000D03*
X8745000Y4430000D03*
X10015000Y4430000D03*
X11285000Y4430000D03*
X12555000Y4430000D03*
X13825000Y4430000D03*
X15095000Y4430000D03*
X15095000Y11355000D03*
X13825000Y11355000D03*
X12555000Y11355000D03*
X11285000Y11355000D03*
X10015000Y11355000D03*
X8745000Y11355000D03*
X7475000Y11355000D03*
D11*
X20175000Y15225000D03*
D12*
X20175000Y17765000D03*
X20175000Y20305000D03*
X20175000Y22845000D03*
X20175000Y25385000D03*
X20175000Y27925000D03*
X20175000Y30465000D03*
X20175000Y33005000D03*
X20175000Y35545000D03*
X20175000Y38085000D03*
X20175000Y40625000D03*
X20175000Y43165000D03*
X20175000Y45705000D03*
X20175000Y48245000D03*
X20175000Y50785000D03*
X20175000Y53325000D03*
X20175000Y55865000D03*
X20175000Y58405000D03*
X20175000Y60945000D03*
X20175000Y63485000D03*
X4935000Y63485000D03*
X4935000Y60945000D03*
X4935000Y58405000D03*
X4935000Y55865000D03*
X4935000Y53325000D03*
X4935000Y50785000D03*
X4935000Y48245000D03*
X4935000Y45705000D03*
X4935000Y43165000D03*
X4935000Y40625000D03*
X4935000Y38085000D03*
X4935000Y35545000D03*
X4935000Y33005000D03*
X4935000Y30465000D03*
X4935000Y27925000D03*
X4935000Y25385000D03*
X4935000Y22845000D03*
X4935000Y20305000D03*
X4935000Y17765000D03*
X4935000Y15225000D03*
D13*
X43835000Y63485000D03*
D14*
X43035000Y63485000D03*
D13*
X43835000Y60945000D03*
D14*
X43035000Y60945000D03*
D15*
X43835000Y58405000D03*
D16*
X43035000Y58405000D03*
D13*
X43835000Y55865000D03*
D14*
X43035000Y55865000D03*
D13*
X43835000Y53325000D03*
D14*
X43035000Y53325000D03*
D13*
X43835000Y50785000D03*
D14*
X43035000Y50785000D03*
D13*
X43835000Y48245000D03*
D14*
X43035000Y48245000D03*
D15*
X43835000Y45705000D03*
D16*
X43035000Y45705000D03*
D13*
X43835000Y43165000D03*
D14*
X43035000Y43165000D03*
D13*
X43835000Y40625000D03*
D14*
X43035000Y40625000D03*
D13*
X43835000Y38085000D03*
D14*
X43035000Y38085000D03*
D13*
X43835000Y35545000D03*
D14*
X43035000Y35545000D03*
D15*
X43835000Y33005000D03*
D16*
X43035000Y33005000D03*
D13*
X43835000Y30465000D03*
D14*
X43035000Y30465000D03*
D13*
X43835000Y27925000D03*
D14*
X43035000Y27925000D03*
D13*
X43835000Y25385000D03*
D14*
X43035000Y25385000D03*
D13*
X43835000Y22845000D03*
D14*
X43035000Y22845000D03*
D15*
X43835000Y20305000D03*
D16*
X43035000Y20305000D03*
D13*
X43835000Y17765000D03*
D14*
X43035000Y17765000D03*
D13*
X43835000Y15225000D03*
D14*
X43035000Y15225000D03*
X25255000Y15225000D03*
D13*
X24455000Y15225000D03*
D14*
X25255000Y17765000D03*
D13*
X24455000Y17765000D03*
D17*
X25255000Y20305000D03*
D18*
X24455000Y20305000D03*
D14*
X25255000Y22845000D03*
D13*
X24455000Y22845000D03*
D14*
X25255000Y25385000D03*
D13*
X24455000Y25385000D03*
D14*
X25255000Y27925000D03*
D13*
X24455000Y27925000D03*
D14*
X25255000Y30465000D03*
D13*
X24455000Y30465000D03*
D17*
X25255000Y33005000D03*
D18*
X24455000Y33005000D03*
D14*
X25255000Y35545000D03*
D13*
X24455000Y35545000D03*
D14*
X25255000Y38085000D03*
D13*
X24455000Y38085000D03*
D14*
X25255000Y40625000D03*
D13*
X24455000Y40625000D03*
D14*
X25255000Y43165000D03*
D13*
X24455000Y43165000D03*
D17*
X25255000Y45705000D03*
D18*
X24455000Y45705000D03*
D14*
X25255000Y48245000D03*
D13*
X24455000Y48245000D03*
D14*
X25255000Y50785000D03*
D13*
X24455000Y50785000D03*
D14*
X25255000Y53325000D03*
D13*
X24455000Y53325000D03*
D14*
X25255000Y55865000D03*
D13*
X24455000Y55865000D03*
D17*
X25255000Y58405000D03*
D18*
X24455000Y58405000D03*
D14*
X25255000Y60945000D03*
D13*
X24455000Y60945000D03*
D19*
X25255000Y63485000D03*
D15*
X24455000Y63485000D03*
D20*
X36870000Y63355000D03*
D21*
X36570000Y60325000D03*
X31720000Y60325000D03*
D20*
X31420000Y63355000D03*
D22*
X24467500Y3795000D03*
X26042500Y3795000D03*
X24467500Y5700000D03*
X26042500Y5700000D03*
X24467500Y7605000D03*
X26042500Y7605000D03*
D23*
X21000000Y3795000D03*
X19350000Y3795000D03*
D22*
X24467500Y11415000D03*
X26042500Y11415000D03*
D23*
X21000000Y11415000D03*
X19350000Y11415000D03*
X21000000Y9510000D03*
X19350000Y9510000D03*
D22*
X24467500Y9510000D03*
X26042500Y9510000D03*
D23*
X21000000Y7605000D03*
X19350000Y7605000D03*
X21000000Y5700000D03*
X19350000Y5700000D03*
D24*
X25255000Y67295000D03*
D14*
X25255000Y69835000D03*
D25*
X44000000Y69000000D03*
D26*
X32250000Y8585000D03*
X38750000Y8585000D03*
X32250000Y4085000D03*
X38750000Y4085000D03*
D25*
X3000000Y69000000D03*
D27*
X1760000Y53325000D03*
D14*
X1760000Y55865000D03*
X1760000Y58405000D03*
X1760000Y60945000D03*
X1760000Y63485000D03*
D27*
X1760000Y15225000D03*
D14*
X1760000Y17765000D03*
X1760000Y20305000D03*
X1760000Y22845000D03*
X1760000Y25385000D03*
D25*
X3000000Y3000000D03*
D28*
X21445000Y69835000D03*
D29*
X18905000Y69835000D03*
X16365000Y69835000D03*
X13825000Y69835000D03*
X11285000Y69835000D03*
X8745000Y69835000D03*
D25*
X44000000Y3000000D03*
D14*
X4915000Y12050000D03*
X2415000Y12050000D03*
D30*
X36050000Y11415000D03*
X41130000Y11415000D03*
D31*
X15788045Y6911955D03*
X12259400Y22463000D03*
X12259400Y53180500D03*
X11285000Y60945000D03*
X39860000Y23522550D03*
X40581714Y31129376D03*
X27925000Y40513400D03*
X17635000Y29195000D03*
X10015000Y25385000D03*
X8745000Y27290000D03*
M02*
