G04 #@! TF.GenerationSoftware,KiCad,Pcbnew,9.0.4-9.0.4-0~ubuntu22.04.1*
G04 #@! TF.CreationDate,2025-10-25T09:08:59+09:00*
G04 #@! TF.ProjectId,Pico2MEMEmuCosmac,5069636f-324d-4454-9d45-6d75436f736d,1.0*
G04 #@! TF.SameCoordinates,PX68e7780PY7270e00*
G04 #@! TF.FileFunction,Soldermask,Bot*
G04 #@! TF.FilePolarity,Negative*
%FSLAX46Y46*%
G04 Gerber Fmt 4.6, Leading zero omitted, Abs format (unit mm)*
G04 Created by KiCad (PCBNEW 9.0.4-9.0.4-0~ubuntu22.04.1) date 2025-10-25 09:08:59*
%MOMM*%
%LPD*%
G01*
G04 APERTURE LIST*
G04 Aperture macros list*
%AMRoundRect*
0 Rectangle with rounded corners*
0 $1 Rounding radius*
0 $2 $3 $4 $5 $6 $7 $8 $9 X,Y pos of 4 corners*
0 Add a 4 corners polygon primitive as box body*
4,1,4,$2,$3,$4,$5,$6,$7,$8,$9,$2,$3,0*
0 Add four circle primitives for the rounded corners*
1,1,$1+$1,$2,$3*
1,1,$1+$1,$4,$5*
1,1,$1+$1,$6,$7*
1,1,$1+$1,$8,$9*
0 Add four rect primitives between the rounded corners*
20,1,$1+$1,$2,$3,$4,$5,0*
20,1,$1+$1,$4,$5,$6,$7,0*
20,1,$1+$1,$6,$7,$8,$9,0*
20,1,$1+$1,$8,$9,$2,$3,0*%
%AMFreePoly0*
4,1,37,0.000000,0.796148,0.078414,0.796148,0.232228,0.765552,0.377117,0.705537,0.507515,0.618408,0.618408,0.507515,0.705537,0.377117,0.765552,0.232228,0.796148,0.078414,0.796148,-0.078414,0.765552,-0.232228,0.705537,-0.377117,0.618408,-0.507515,0.507515,-0.618408,0.377117,-0.705537,0.232228,-0.765552,0.078414,-0.796148,0.000000,-0.796148,0.000000,-0.800000,-0.600000,-0.800000,
-0.603843,-0.796157,-0.639018,-0.796157,-0.711114,-0.766294,-0.766294,-0.711114,-0.796157,-0.639018,-0.796157,-0.603843,-0.800000,-0.600000,-0.800000,0.600000,-0.796157,0.603843,-0.796157,0.639018,-0.766294,0.711114,-0.711114,0.766294,-0.639018,0.796157,-0.603843,0.796157,-0.600000,0.800000,0.000000,0.800000,0.000000,0.796148,0.000000,0.796148,$1*%
%AMFreePoly1*
4,1,37,0.603843,0.796157,0.639018,0.796157,0.711114,0.766294,0.766294,0.711114,0.796157,0.639018,0.796157,0.603843,0.800000,0.600000,0.800000,-0.600000,0.796157,-0.603843,0.796157,-0.639018,0.766294,-0.711114,0.711114,-0.766294,0.639018,-0.796157,0.603843,-0.796157,0.600000,-0.800000,0.000000,-0.800000,0.000000,-0.796148,-0.078414,-0.796148,-0.232228,-0.765552,-0.377117,-0.705537,
-0.507515,-0.618408,-0.618408,-0.507515,-0.705537,-0.377117,-0.765552,-0.232228,-0.796148,-0.078414,-0.796148,0.078414,-0.765552,0.232228,-0.705537,0.377117,-0.618408,0.507515,-0.507515,0.618408,-0.377117,0.705537,-0.232228,0.765552,-0.078414,0.796148,0.000000,0.796148,0.000000,0.800000,0.600000,0.800000,0.603843,0.796157,0.603843,0.796157,$1*%
G04 Aperture macros list end*
%ADD10RoundRect,0.250000X0.950000X0.550000X-0.950000X0.550000X-0.950000X-0.550000X0.950000X-0.550000X0*%
%ADD11O,2.400000X1.600000*%
%ADD12C,1.600000*%
%ADD13FreePoly0,0.000000*%
%ADD14FreePoly1,0.000000*%
%ADD15RoundRect,0.200000X-0.600000X-0.600000X0.600000X-0.600000X0.600000X0.600000X-0.600000X0.600000X0*%
%ADD16C,2.200000*%
%ADD17C,1.850000*%
%ADD18RoundRect,0.250000X0.550000X-0.550000X0.550000X0.550000X-0.550000X0.550000X-0.550000X-0.550000X0*%
%ADD19C,3.200000*%
%ADD20C,2.000000*%
%ADD21R,1.600000X1.600000*%
%ADD22R,1.700000X1.700000*%
%ADD23C,1.700000*%
%ADD24C,1.400000*%
%ADD25C,0.605000*%
G04 APERTURE END LIST*
D10*
X20175000Y15225000D03*
D11*
X20175000Y17765000D03*
X20175000Y20305000D03*
X20175000Y22845000D03*
X20175000Y25385000D03*
X20175000Y27925000D03*
X20175000Y30465000D03*
X20175000Y33005000D03*
X20175000Y35545000D03*
X20175000Y38085000D03*
X20175000Y40625000D03*
X20175000Y43165000D03*
X20175000Y45705000D03*
X20175000Y48245000D03*
X20175000Y50785000D03*
X20175000Y53325000D03*
X20175000Y55865000D03*
X20175000Y58405000D03*
X20175000Y60945000D03*
X20175000Y63485000D03*
X4935000Y63485000D03*
X4935000Y60945000D03*
X4935000Y58405000D03*
X4935000Y55865000D03*
X4935000Y53325000D03*
X4935000Y50785000D03*
X4935000Y48245000D03*
X4935000Y45705000D03*
X4935000Y43165000D03*
X4935000Y40625000D03*
X4935000Y38085000D03*
X4935000Y35545000D03*
X4935000Y33005000D03*
X4935000Y30465000D03*
X4935000Y27925000D03*
X4935000Y25385000D03*
X4935000Y22845000D03*
X4935000Y20305000D03*
X4935000Y17765000D03*
X4935000Y15225000D03*
D12*
X43035000Y63485000D03*
X43035000Y60945000D03*
D13*
X43035000Y58405000D03*
D12*
X43035000Y55865000D03*
X43035000Y53325000D03*
X43035000Y50785000D03*
X43035000Y48245000D03*
D13*
X43035000Y45705000D03*
D12*
X43035000Y43165000D03*
X43035000Y40625000D03*
X43035000Y38085000D03*
X43035000Y35545000D03*
D13*
X43035000Y33005000D03*
D12*
X43035000Y30465000D03*
X43035000Y27925000D03*
X43035000Y25385000D03*
X43035000Y22845000D03*
D13*
X43035000Y20305000D03*
D12*
X43035000Y17765000D03*
X43035000Y15225000D03*
X25255000Y15225000D03*
X25255000Y17765000D03*
D14*
X25255000Y20305000D03*
D12*
X25255000Y22845000D03*
X25255000Y25385000D03*
X25255000Y27925000D03*
X25255000Y30465000D03*
D14*
X25255000Y33005000D03*
D12*
X25255000Y35545000D03*
X25255000Y38085000D03*
X25255000Y40625000D03*
X25255000Y43165000D03*
D14*
X25255000Y45705000D03*
D12*
X25255000Y48245000D03*
X25255000Y50785000D03*
X25255000Y53325000D03*
X25255000Y55865000D03*
D14*
X25255000Y58405000D03*
D12*
X25255000Y60945000D03*
D15*
X25255000Y63485000D03*
D16*
X36870000Y63355000D03*
D17*
X36570000Y60325000D03*
X31720000Y60325000D03*
D16*
X31420000Y63355000D03*
D18*
X25255000Y67295000D03*
D12*
X25255000Y69835000D03*
D19*
X44000000Y69000000D03*
D20*
X32250000Y8585000D03*
X38750000Y8585000D03*
X32250000Y4085000D03*
X38750000Y4085000D03*
D19*
X3000000Y69000000D03*
D21*
X1760000Y53325000D03*
D12*
X1760000Y55865000D03*
X1760000Y58405000D03*
X1760000Y60945000D03*
X1760000Y63485000D03*
D21*
X1760000Y15225000D03*
D12*
X1760000Y17765000D03*
X1760000Y20305000D03*
X1760000Y22845000D03*
X1760000Y25385000D03*
D19*
X3000000Y3000000D03*
D22*
X21445000Y69835000D03*
D23*
X18905000Y69835000D03*
X16365000Y69835000D03*
X13825000Y69835000D03*
X11285000Y69835000D03*
X8745000Y69835000D03*
D19*
X44000000Y3000000D03*
D12*
X4915000Y12050000D03*
X2415000Y12050000D03*
D24*
X36050000Y11415000D03*
X41130000Y11415000D03*
D25*
X15788045Y6911955D03*
X12259400Y22463000D03*
X12259400Y53180500D03*
X11285000Y60945000D03*
X39860000Y23522550D03*
X40581714Y31129376D03*
X27925000Y40513400D03*
X17635000Y29195000D03*
X10015000Y25385000D03*
X8745000Y27290000D03*
M02*
